<svg xmlns="http://www.w3.org/2000/svg" width="41" height="38" viewBox="0 0 41 38"><title>ico-creche-jardin</title><path d="M41,18.22a9.09,9.09,0,0,0-9-9.16,8.9,8.9,0,0,0-6.1,2.44,5.48,5.48,0,0,0-1.84-3.87L25.17,4.9a2.46,2.46,0,0,0,1.9-2.42,2.44,2.44,0,1,0-4.88,0,2.51,2.51,0,0,0,.38,1.32L21.51,6.39a5.17,5.17,0,0,0-1.88,0L18.58,3.8A2.5,2.5,0,0,0,19,2.48a2.44,2.44,0,1,0-4.88,0A2.46,2.46,0,0,0,16,4.9l1.11,2.73a5.49,5.49,0,0,0-1.85,4A8.87,8.87,0,0,0,9,9.06a9.09,9.09,0,0,0-9,9.16,9.26,9.26,0,0,0,2.58,6.42,7.06,7.06,0,0,0-1,3.59,7,7,0,0,0,6.89,7H14a4,4,0,0,0,1.76-.41A5.33,5.33,0,0,0,20.57,38a5.25,5.25,0,0,0,3.78-1.6,5.47,5.47,0,0,0,1-1.51,3.93,3.93,0,0,0,1.64.36H32.5a7,7,0,0,0,6.89-7,7.07,7.07,0,0,0-1-3.59A9.26,9.26,0,0,0,41,18.22ZM24.62,1.44a1,1,0,0,1,0,2.08H24.2l-.31-.34a1,1,0,0,1-.28-.72A1,1,0,0,1,24.62,1.44ZM16.94,3.53h-.45a1,1,0,0,1,0-2.08,1,1,0,0,1,1,1,1,1,0,0,1-.28.72ZM8.5,33.8A5.53,5.53,0,0,1,3,28.23a5.61,5.61,0,0,1,1-3.27l.38-.53L4,24a7.79,7.79,0,0,1-2.55-5.78A7.66,7.66,0,0,1,9,10.5a7.51,7.51,0,0,1,6.24,3.36V33.46A2.57,2.57,0,0,1,14,33.8Zm15.85-.16a4,4,0,0,1-1,1.74,3.86,3.86,0,0,1-2.78,1.17,3.94,3.94,0,0,1-3.8-3l-.12-.49V11.74a4,4,0,0,1,1.7-3.29l.47-.33h0l.61-.19a3.85,3.85,0,0,1,2.3,0l.61.19h0l.47.33a4,4,0,0,1,1.7,3.29V33.12Zm8.15.16H27a2.54,2.54,0,0,1-1.13-.27V13.67A7.54,7.54,0,0,1,32,10.5a7.66,7.66,0,0,1,7.58,7.72A7.8,7.8,0,0,1,37,24l-.48.43.38.53a5.61,5.61,0,0,1,1,3.27A5.53,5.53,0,0,1,32.5,33.8Z" fill="#ea5f48"/></svg>