<svg xmlns="http://www.w3.org/2000/svg" width="36" height="33" viewBox="0 0 36 33"><title>ico-creche-capacite</title><path d="M35.17,0a.85.85,0,0,0-.83.85V4.66H1.67V.85A.85.85,0,0,0,.83,0,.85.85,0,0,0,0,.85v25a.85.85,0,0,0,.83.85H4.62v5.47a.83.83,0,1,0,1.67,0V26.67H29.71v5.47a.83.83,0,1,0,1.67,0V26.67h3.78a.85.85,0,0,0,.83-.85V.85A.85.85,0,0,0,35.17,0Zm-.83,7.18V18.86a.78.78,0,0,0-.17,0H27.69V6.51a.82.82,0,0,0,0-.14h6.67ZM17.16,18.82H10V6.51a.82.82,0,0,0,0-.14h7.24a.82.82,0,0,0,0,.14Zm0,1.71V25H10V20.53Zm1.67,0H26V25H18.83Zm0-1.71V6.51a.82.82,0,0,0,0-.14H26a.82.82,0,0,0,0,.14V18.82ZM8.34,6.37a.82.82,0,0,0,0,.14V18.82H1.67V6.37ZM1.67,20.53H8.31V25H1.67Zm26,4.43V20.53h6.48a.78.78,0,0,0,.17,0V25Z" fill="#ea5f48"/></svg>