<svg xmlns="http://www.w3.org/2000/svg" width="37" height="37" viewBox="0 0 37 37"><title>ico-creche-horaires</title><path d="M28.06,8.21l-8,8a2.78,2.78,0,0,0-3.63.43l-5.82-3.36a.8.8,0,1,0-.8,1.39l5.93,3.42a2.77,2.77,0,0,0,0,.43,2.8,2.8,0,1,0,5.39-1.06l8.1-8.1a.8.8,0,0,0-1.14-1.13ZM18.5,19.7a1.2,1.2,0,0,1-1.2-1.2,1.13,1.13,0,0,1,0-.19.76.76,0,0,0,.16-.16.78.78,0,0,0,.09-.41,1.18,1.18,0,0,1,.9-.44,1.2,1.2,0,0,1,0,2.39Z" fill="#ea5f48"/><path d="M18.5,0A18.5,18.5,0,1,0,37,18.5,18.52,18.52,0,0,0,18.5,0Zm0,35.4A16.9,16.9,0,1,1,35.4,18.5,16.91,16.91,0,0,1,18.5,35.4Z" fill="#ea5f48"/><path d="M18.5,7.1a.8.8,0,0,0,.8-.8V5.06a.8.8,0,1,0-1.6,0V6.3A.8.8,0,0,0,18.5,7.1Z" fill="#ea5f48"/><path d="M6.3,17.7H5.06a.8.8,0,1,0,0,1.6H6.3a.8.8,0,1,0,0-1.6Z" fill="#ea5f48"/><path d="M18.5,29.9a.8.8,0,0,0-.8.8v1.25a.8.8,0,0,0,1.6,0V30.7A.8.8,0,0,0,18.5,29.9Z" fill="#ea5f48"/><path d="M31.94,17.7H30.7a.8.8,0,0,0,0,1.6h1.25a.8.8,0,0,0,0-1.6Z" fill="#ea5f48"/></svg>