<?xml version="1.0" encoding="utf-8"?>
<!-- Generator: Adobe Illustrator 18.1.1, SVG Export Plug-In . SVG Version: 6.00 Build 0)  -->
<svg version="1.1" id="Calque_1" xmlns="http://www.w3.org/2000/svg" xmlns:xlink="http://www.w3.org/1999/xlink" x="0px" y="0px"
	 viewBox="0 0 283.5 283.5" style="enable-background:new 0 0 283.5 283.5;" xml:space="preserve">
<g id="_x39_gx5tH.tif">
	<g>
		<path d="M27.1,244.4c0-71.4,0-142.7,0-214.1c0.2-0.4,0.4-0.8,0.5-1.2C30.2,14.8,38.6,5.5,52.4,1c1.6-0.5,3.2-0.8,4.7-1.3
			c55.9,0,111.8,0,167.7,0c0.4,0.2,0.7,0.4,1.1,0.5c13.9,2.4,24.7,12.6,27.9,26.3c0.3,1.4,0.7,2.9,1,4.3c0,71.2,0,142.4,0,213.5
			c-0.2,0.6-0.5,1.1-0.5,1.7c-2.4,20.3-20.9,37-41.3,37.3c-9,0.1-17.9,0.1-26.9,0c-7.3,0-13.9-4.7-16.1-11.8c-0.9-2.9-1.4-6-1.4-9
			c-0.1-15.6,0-31.3-0.1-46.9c0-5.9-3.2-9.4-8.9-9.4c-12.5-0.1-25,0-37.4,0c-2.8,0-5.5,0.8-6.9,3.2c-1.1,1.9-1.9,4.4-1.9,6.6
			c-0.2,16.3-0.1,32.7-0.1,49c0,11.1-7.3,18.4-18.3,18.4c-8.3,0-16.5,0-24.8,0c-19.7-0.1-36.7-13.3-41.7-32.4
			C28,248.8,27.6,246.6,27.1,244.4z M159.3,64.1c0-5.5,0.1-11.1,0-16.6c-0.1-7.3-4.6-12.5-11.7-13.2c-4.3-0.4-8.8-0.4-13.1,0
			c-6.9,0.6-11.6,5.7-11.7,12.6c-0.2,11.5-0.2,23,0,34.5c0.1,7.7,5.7,12.7,13.5,12.8c3.1,0,6.1,0,9.2,0c8.5,0,13.8-5.2,13.8-13.8
			C159.3,75,159.3,69.5,159.3,64.1z M122.7,141.2c0,5.4,0,10.9,0,16.3c0,0.2,0,0.4,0,0.5c0.3,7.9,5.5,13.1,13.4,13.1
			c3.2,0,6.5,0,9.7,0c7.8,0,13.2-5.1,13.4-12.8c0.2-11.4,0.2-22.8,0-34.2c-0.1-7.7-5.6-12.8-13.3-13c-3.2-0.1-6.3,0-9.5,0
			c-8.3,0.1-13.6,5.4-13.7,13.7C122.7,130.3,122.7,135.8,122.7,141.2z M178.9,64.2c0,5.8,0,11.6,0,17.4c0.1,7,5.6,12.5,12.5,12.6
			c3.7,0,7.4,0,11.1,0c7.2-0.1,12.8-5.6,12.8-12.9c0-11.4,0-22.8,0-34.2c0-6.4-4.3-11.8-10.5-12.5c-4.9-0.6-10-0.6-14.9-0.1
			c-6.8,0.7-10.9,6-11,12.9C178.9,53,178.9,58.6,178.9,64.2z M103.1,141.4c0-5.8,0-11.6,0-17.4c-0.1-6.6-4.4-11.9-11.1-12.6
			c-4.7-0.5-9.5-0.5-14.2,0c-6.7,0.6-11.2,6-11.2,12.7c0,11.4,0,22.8,0,34.2c0,7.1,5.6,12.7,12.7,12.8c3.7,0,7.4,0,11.1,0
			c7.2-0.1,12.6-5.5,12.7-12.7C103.1,152.8,103.1,147.1,103.1,141.4z M215.4,141.4c0-5.8,0-11.6,0-17.4c-0.1-6.5-4.5-11.8-10.9-12.5
			c-4.6-0.5-9.3-0.6-13.9-0.2c-7.2,0.6-11.7,5.9-11.7,13.1c0,11.3,0,22.7,0,34c0,7.2,5.4,12.7,12.6,12.8c3.7,0,7.4,0,11.1,0
			c7.3-0.1,12.7-5.6,12.8-12.9C215.4,152.7,215.4,147,215.4,141.4z M103.1,64.3c0-5.8,0-11.6,0-17.4c-0.1-6.4-4.3-11.7-10.6-12.4
			C87.4,34,82.1,34,77,34.6c-6,0.6-10.3,6.1-10.3,12.1c-0.1,11.7-0.1,23.4,0,35c0.1,6.8,5.7,12.3,12.5,12.4c3.7,0.1,7.4,0,11.1,0
			c7.3-0.1,12.8-5.5,12.9-12.8C103.1,75.7,103.1,70,103.1,64.3z"/>
	</g>
</g>
</svg>
