<?xml version="1.0" encoding="utf-8"?>
<!-- Generator: Adobe Illustrator 18.1.1, SVG Export Plug-In . SVG Version: 6.00 Build 0)  -->
<svg version="1.1" id="Calque_1" xmlns="http://www.w3.org/2000/svg" xmlns:xlink="http://www.w3.org/1999/xlink" x="0px" y="0px"
	 viewBox="0 0 283.5 283.5" style="enable-background:new 0 0 283.5 283.5;" xml:space="preserve">
<g id="um4ykA.tif">
	<g>
		<path d="M282,139.2c-2,5.2-5.8,8.9-10.3,12c-11.2,7.7-23.8,12.5-36.6,16.6c-0.6,0.2-1.6-0.2-2.1-0.6
			c-16.4-13.2-32.7-26.6-49.2-39.7c-5.1-4.1-10.7-7.6-16.3-11.1c-4.5-2.8-9.2-5.3-13.7-8c-1.2-0.7-2.2-1.8-3-2.9
			c-2.7-4.2-5.3-8.6-8-12.8c-0.6-0.9-1.4-1.8-2.2-2.6c-3.7-3.8-6-4-10.1-0.6c-4.5,3.8-9.3,6.8-15.1,8c-6.7,1.4-12.9,0.5-18.4-4
			c-5.7-4.6-6.5-11.2-2.3-17.1c8.5-11.8,19-21,33.3-25.1c3.8-1.1,7.8-1.5,11.7-2.3c1.4,0,2.9,0,4.3,0c2.4,0.4,5,0.5,7.3,1.3
			c11.4,3.7,22,8.9,31.1,16.7c4.4,3.8,8.2,8.2,12.3,12.4c5.1-3,10.4-6.3,16-9.4c7.8-4.3,15.7-8.2,24.4-10.6
			c6.9-1.9,12.3-0.6,16.9,5.3c12.3,15.6,20.5,33.2,26.4,52c1.4,4.6,2.3,9.4,3.4,14.1C282,133.7,282,136.4,282,139.2z"/>
		<path d="M133.1,98.7c2.5,4.3,5,8.8,7.6,13.2c0.6,1,1.5,1.9,2.4,2.5c4.9,2.9,9.9,5.6,14.8,8.4c7.1,4.1,13.5,9.1,19.7,14.5
			c9.2,8,19,15.3,28.5,22.9c5.5,4.3,11,8.6,16.5,12.9c3.3,2.6,3.3,2.6,7.2,1.7c3.7,6.3,2.7,14.2-4.4,17.2c-2.7,1.2-5.6,1.7-8.5,2.4
			c-1,0.3-2.1,0.2-3,0.4c-0.1,2.2-0.1,4.3-0.3,6.4c-0.8,7.2-5.4,11.6-12.6,11.5c-4.4,0-8.7-0.9-13.1-1.4c0.2,1.8,0.6,3.9,0.6,6.1
			c0.2,8.1-4.2,13.5-12.3,14.5c-3.6,0.5-7.3,0.1-11,0.2c-1,0-2.3,0.3-2.9,0.9c-4.1,4.8-9.3,6.2-15.2,4.6c-3.9-1.1-7.6-2.9-11.5-4.5
			c4.9-7.2,7.3-14.8,8.9-22.7c1.2-5.9,1.4-11.8-0.2-17.6c-2.1-8.1-7.2-13.7-15-16.6c-1.7-0.6-2.8-1.6-3.7-3c-4-6.1-9.1-11-16.5-12.7
			c-3.6-0.8-8-3.3-10.6-6c-5.4-5.4-13.1-6.6-20.9-2.8c-3,1.5-5.1,1.6-8.2-0.1c-8.7-4.6-18.1-2.3-23.9,5.6c-2.3,3.1-3.9,6.8-6,10.4
			c-1.8-1.3-3.8-2.8-5.8-4.4c-7.8-6.5-15.4-13.1-23.3-19.4c-6-4.8-8-11.1-7.5-18.3c1.5-21.2,9.3-39.9,22.8-56.3
			c1.9-2.3,4.5-4.1,6.9-5.9c3.2-2.3,6.8-2.5,10.5-1.1c7,2.7,12.9,7.2,18.5,11.9c1.5,1.3,2.7,1.5,4.5,0.7c7-3,14-5.9,21-8.8
			c0.7-0.3,1.5-0.6,2.5-0.5c-0.9,1.1-1.8,2.3-2.7,3.4c-11,13.4-4.5,29.6,9.2,35.5c11.7,5.1,22.7,2.7,33.1-3.8c1-0.6,2-1.3,3-2
			C132.4,98.7,132.5,98.7,133.1,98.7z"/>
		<path d="M118.2,180.6C108,191,103,203.7,99.5,217.2c-0.5,1.8-1.2,2.4-2.9,2.4c-4.1,0-7.8-1-10.9-3.6c-0.6-0.5-1.2-1.6-1.1-2.4
			c2.1-14.2,6.1-28,12.4-40.9c2.1-4.2,4-5,8.6-3.8c4.6,1.2,7.7,4.4,10.3,8.2C116.8,178.2,117.5,179.4,118.2,180.6z"/>
		<path d="M135.2,201.5c-0.2,8.3-2.5,16.2-6.3,23.4c-2.3,4.4-9.8,8.6-17.1,5c-5.3-2.6-5.8-3.5-4.3-9.1c3.2-12.1,8-23.5,15.4-33.6
			c2.1-2.9,2.3-2.9,5.3-1C133.9,189.9,135.2,195.4,135.2,201.5z"/>
		<path d="M63.7,199.5c0.9-13.2,5.2-24.8,10.9-35.9c2-4,5.3-5.3,9.3-5.7c3.9-0.4,7.8,2.7,8.6,6.5c0.1,0.5-0.2,1.2-0.5,1.7
			c-7.8,11.7-11.8,24.8-14.2,38.4c-0.3,1.9-1,2.4-2.6,2c-2.8-0.7-5.7-1.5-8.4-2.5C64.5,203.3,62.9,201.7,63.7,199.5z"/>
		<path d="M56.9,192.2c-6.2-4.2-11.3-9.1-11.7-16.7c-0.3-6.8,2.6-12.6,8.2-16.8c2.3-1.7,5-1.7,7.6-0.5c2.1,1,4,2.3,6.1,3.5
			C62.2,171.5,58.6,181.4,56.9,192.2z"/>
	</g>
</g>
</svg>
