<?xml version="1.0" encoding="utf-8"?>
<!-- Generator: Adobe Illustrator 18.1.1, SVG Export Plug-In . SVG Version: 6.00 Build 0)  -->
<svg version="1.1" id="Calque_1" xmlns="http://www.w3.org/2000/svg" xmlns:xlink="http://www.w3.org/1999/xlink" x="0px" y="0px"
	 viewBox="0 0 283.5 283.5" style="enable-background:new 0 0 283.5 283.5;" xml:space="preserve">
<g id="q5Ejgj.tif">
	<g>
		<path d="M21,245.3c0-4,0-8,0-12c0.1-0.7,0.2-1.4,0.4-2.1c0.9-5.4,3.5-10,6.9-14.2c5.8-7.4,13.1-13.1,20.8-18.3
			c13.3-8.9,27.6-15.8,42.4-21.8c2.1-0.8,4.1-1.6,6.2-2.4c5.4,13,11.6,25.6,19.5,37.1c2.9-5.6,5.6-11.2,8.5-16.7
			c2.9-5.5,6.2-10.8,10.1-15.8c-4.3-0.6-8.3-1.8-12.2-3.6c-5.2-2.4-9.7-5.7-13.5-10.1c-0.3-0.4-0.7-1.2-0.5-1.6
			c1.5-4.1,1.4-8.3,0.4-12.4c-0.4-1.7-0.8-3.7-1.9-4.8c-7.9-8.5-14.4-17.9-19.4-28.4c-8.8-18.4-13.3-37.6-11.4-58.1
			c0.7-8.2,2.5-16.2,6-23.7c9.5-20.6,25.9-32,48.1-35.4c1.9-0.3,3.7-0.5,5.6-0.7c3.1,0,6.3,0,9.4,0c0.3,0.1,0.6,0.2,0.9,0.2
			c3.7,0.6,7.5,0.8,11.1,1.7c18.8,4.6,32.8,15.5,41.2,33c4.9,10.3,6.9,21.3,7,32.6c0.1,9.3-1.1,18.5-3.5,27.5
			c-4.9,18.6-13.6,35.3-26.5,49.6c-1.1,1.3-2,2.6-2.4,4.2c-1.3,4.9-2.1,9.8-0.9,14.9c0.2,0.7,0.1,1.2-0.4,1.8
			c-2.5,2.9-5.4,5.2-8.6,7.3c-5.1,3.2-10.6,5.2-16.7,6c7.7,9.9,13.2,21.1,18.5,32.4c7.9-11.5,14-23.8,19.3-36.5
			c0.2,0.1,0.4,0.1,0.5,0.1c15.5,5.5,30.5,12.1,44.5,20.8c8.4,5.2,16.3,11,22.8,18.4c3.9,4.5,7.1,9.4,8.5,15.4
			c0.2,1.1,0.4,2.1,0.6,3.2c0,3.9,0,7.7,0,11.6c-0.1,0.3-0.2,0.7-0.2,1c-0.2,3.5-1.3,6.7-3.2,9.7c-3.3,5.4-8.1,9.1-13.4,12
			c-8.2,4.5-17,7.2-26,9.2c-9.7,2.2-19.5,3.7-29.4,4.5c-9.2,0.7-18.5,1.5-27.7,1.8c-10.2,0.4-20.4,0.4-30.5,0.3
			c-9.5-0.1-19.1-0.5-28.6-1.2c-8.3-0.6-16.6-1.7-24.9-2.7c-8.7-1.1-17.3-3-25.7-5.7c-7.5-2.4-14.7-5.3-21-10.1
			c-4.7-3.6-8.4-8-10-13.9C21.5,248.1,21.3,246.7,21,245.3z"/>
	</g>
</g>
</svg>
