<?xml version="1.0" encoding="utf-8"?>
<!-- Generator: Adobe Illustrator 18.1.1, SVG Export Plug-In . SVG Version: 6.00 Build 0)  -->
<svg version="1.1" id="Calque_1" xmlns="http://www.w3.org/2000/svg" xmlns:xlink="http://www.w3.org/1999/xlink" x="0px" y="0px"
	 viewBox="0 0 283.5 283.5" style="enable-background:new 0 0 283.5 283.5;" xml:space="preserve">
<g id="VDDu0b.tif">
	<g>
		<path d="M1,237.8c0-39.5,0-79.1,0-118.6c0.8,0.2,1.7,0.4,2.5,0.7c15.5,5.7,30.9,11.5,46.4,17.2c20,7.4,40,14.8,60,22.3
			c0.9,0.3,1.9,1.2,2.1,2c0.9,4.8,1.6,9.6,2.5,14.3c0.5,2.8,0.6,5.7,1.7,8.2c2.9,6.3,8.4,8.9,15,9.2c6.9,0.3,13.8,0.1,20.7,0
			c1.5,0,3-0.1,4.4-0.5c6-1.6,10.9-4.8,12.2-11.4c1.2-6.2,2.1-12.5,2.9-18.8c0.2-1.9,1-2.6,2.7-3.3c25.7-9.5,51.3-19,77-28.5
			c10.5-3.9,21-7.7,31.5-11.5c0,39.7,0,79.4,0,119.1c-2.5,8.1-8.5,12.6-16.2,14.8c-3.4,1-7.1,1.6-10.6,1.6
			c-75.9,0.1-151.8,0.1-227.7,0.1c-0.5,0-1.1,0-1.6,0C14.8,253.6,5,250,1,237.8z"/>
		<path d="M282.5,90.4c0,6.7,0,13.5,0,20.2c-0.3,0.1-0.6,0.3-0.9,0.4c-25.9,9.6-51.9,19.2-77.8,28.8c-10.9,4-21.8,8.1-32.8,12.2
			c-4.4-7.1-11.1-8.9-18.8-8.8c-6.9,0.1-13.8,0.1-20.7,0c-7.7-0.1-14.5,1.7-18.7,8.8C75.4,138.3,38.2,124.5,1,110.7
			c0-6.4,0-12.9,0-19.3c2.2-8.8,8.4-13.5,16.6-15.8c3.6-1,7.6-1.5,11.3-1.5c75.3-0.1,150.7-0.1,226-0.1c0.9,0,1.9-0.1,2.8,0
			C268.9,75.2,278.4,78.7,282.5,90.4z"/>
		<path d="M219.4,28.8c6.3,2.2,8.7,6.7,8.5,13.2c-0.2,8.5-0.1,16.9-0.1,25.4c0,0.8,0,1.7,0,2.7c-5.2,0-10.2,0-15.4,0
			c0-9.5,0-18.9,0-28.5c-47.2,0-94.1,0-141.2,0c0,9.5,0,18.9,0,28.5c-5.1,0-10.1,0-15.3,0c0-0.9,0-1.7,0-2.5
			c0-8.4,0.2-16.8-0.1-25.2c-0.3-6.6,1.9-11.2,8.3-13.6C115.8,28.8,167.6,28.8,219.4,28.8z"/>
		<path d="M141.8,185.5c-3.3,0-6.6,0-9.9,0c-4.3-0.1-7-2.4-7.7-6.7c-1.1-6.6-2.2-13.3-3.2-19.9c-0.6-3.7,1.2-6.6,4.9-7.6
			c1.2-0.3,2.5-0.5,3.7-0.5c8.2,0,16.3-0.1,24.5,0c1.9,0,3.9,0.5,5.6,1.3c2.8,1.3,3.6,3.5,3.1,6.6c-1.1,6.6-2.2,13.3-3.2,19.9
			c-0.6,4-3.4,6.6-7.4,6.8c-0.2,0-0.3,0-0.5,0C148.3,185.5,145,185.5,141.8,185.5z"/>
	</g>
</g>
</svg>
