<?xml version="1.0" encoding="utf-8"?>
<!-- Generator: Adobe Illustrator 18.1.1, SVG Export Plug-In . SVG Version: 6.00 Build 0)  -->
<svg version="1.1" id="Calque_1" xmlns="http://www.w3.org/2000/svg" xmlns:xlink="http://www.w3.org/1999/xlink" x="0px" y="0px"
	 viewBox="0 0 283.5 283.5" style="enable-background:new 0 0 283.5 283.5;" xml:space="preserve">
<g id="gENrDa.tif">
	<g>
		<path d="M138.7,5.3c2,0,4,0,5.9,0c0.6,0.1,1.1,0.4,1.7,0.4c9.3,0.9,17.3,4.6,23.8,11.1c33.9,33.8,67.8,67.7,101.6,101.6
			c5.3,5.3,8.8,11.7,10.5,19c0.5,2.2,0.8,4.5,1.3,6.7c0,1.6,0,3.3,0,4.9c-0.2,0.5-0.4,1.1-0.5,1.6c-1.6,15.8-12.7,29.5-27.9,33.9
			c-4,1.2-8.2,1.6-12.5,2.4c0,0.8,0,1.8,0,2.7c0,16.9,0,33.8,0,50.6c0,2.3,0.1,4.6-0.3,6.9c-3.2,19.6-18.6,32.7-38.5,32.7
			c-41.3,0-82.7,0-124,0c-2.6,0-5.3-0.2-7.8-0.7c-18.8-3.9-31-18.9-31.1-38.1c0-17.2,0-34.4,0-51.6c0-1,0-1.9,0-2.9
			c-1.6-0.2-2.9-0.3-4.2-0.4c-16.3-1.8-27.5-10.4-33.8-25.4c-1.2-2.9-1.7-6.1-2.6-9.2c0-3.5,0-6.9,0-10.4c0.2-0.4,0.4-0.7,0.5-1.1
			c1.3-8.2,4.8-15.4,10.7-21.2c34-34.1,68.1-68.1,102.2-102.2c4.8-4.7,10.5-8,16.9-9.7C133.2,6.2,135.9,5.8,138.7,5.3z M165.3,220.9
			C165.3,220.9,165.3,220.9,165.3,220.9c0.1-4.1,0.1-8.2,0.1-12.3c0-4.4-1.4-8.4-4-11.9c-5.7-7.6-16.1-11.1-25.8-8.6
			c-11.1,2.8-17.3,10.7-17.3,22c0,7.7,0,15.5,0,23.2c0,5.1,1.6,9.5,5,13.3c5.9,6.6,13.5,8.7,22.1,7.8c10.3-1,18.9-9.1,19.9-19.1
			C165.7,230.4,165.3,225.6,165.3,220.9z"/>
	</g>
</g>
</svg>
