<?xml version="1.0" encoding="utf-8"?>
<!-- Generator: Adobe Illustrator 18.1.1, SVG Export Plug-In . SVG Version: 6.00 Build 0)  -->
<svg version="1.1" id="Calque_1" xmlns="http://www.w3.org/2000/svg" xmlns:xlink="http://www.w3.org/1999/xlink" x="0px" y="0px"
	 viewBox="0 0 283.5 283.5" style="enable-background:new 0 0 283.5 283.5;" xml:space="preserve">
<g id="conYVp.tif">
	<g>
		<path d="M281.9,257.1c0,1.9,0,3.8,0,5.6c-0.9,1.4-1.6,3-2.7,4.3c-2.8,3.2-6.6,4.8-10.6,5.5c-8.6,1.4-17.3,2.7-25.9,3.9
			c-17.5,2.4-35.2,3.4-52.9,3.6c-19.8,0.2-39.6-0.9-59.1-4.1c-15.3-2.5-30.4-5.3-44.9-11.5c-26.3-11.3-47.8-28.2-63.6-52.1
			c-11.1-16.7-18-35-20.8-54.9c-0.5-3.4-0.9-6.8-1.4-10.2c0-6.1,0-12.2,0-18.3c0.2-0.8,0.4-1.5,0.5-2.3c0.7-5,1.1-10.1,2.1-15.1
			c7-33.6,24-60.9,51.3-81.8C72.6,15.3,93.9,6.6,117.4,3.4c3.6-0.5,7.3-0.9,10.9-1.4c5.3,0,10.6,0,16,0c0.7,0.1,1.4,0.3,2,0.4
			c8.6,1.4,17.4,2.2,25.8,4.4c71.8,18.9,115.6,94.3,96.2,165.9c-3.7,13.8-6.4,27.5-5.7,41.8c0.5,10.5,3.2,20.2,10.1,28.4
			C276.4,247.3,280,251.6,281.9,257.1z M132.5,150.5c0,2.6-0.1,5.2,0,7.8c0.2,5.2,3.6,8.8,8.4,8.8c4.8,0,8.2-3.5,8.5-8.8
			c0.1-1.6,0.2-3.2,0-4.7c-0.3-2.4,0.7-3.3,2.9-4.1c15.8-5.8,24.5-21.1,21.7-37.4c-2.7-15.8-16.9-28.7-34.5-27.6
			c-18.4,1.1-32.1,15.4-32.1,33.1c0,2.1,0.9,4.5,2.1,6.2c2.1,3.1,6.1,4,9.7,2.7c3.4-1.2,5.8-4.2,5.9-7.9
			c0.3-10.7,8.5-16.7,16.6-16.3c8.7,0.4,15.3,7.6,15.2,16c-0.1,8.5-6.8,15.2-15.6,15.7c-5.3,0.3-8.7,3.7-8.8,9
			C132.4,145.4,132.5,147.9,132.5,150.5z M152.3,186.3c0-6.4-5-11.4-11.5-11.4c-6.3,0-11.3,5-11.3,11.3c0,6.4,5,11.6,11.3,11.6
			C147.2,197.8,152.4,192.7,152.3,186.3z"/>
	</g>
</g>
</svg>
