<?xml version="1.0" encoding="utf-8"?>
<!-- Generator: Adobe Illustrator 18.1.1, SVG Export Plug-In . SVG Version: 6.00 Build 0)  -->
<svg version="1.1" id="Calque_1" xmlns="http://www.w3.org/2000/svg" xmlns:xlink="http://www.w3.org/1999/xlink" x="0px" y="0px"
	 viewBox="0 0 283.5 283.5" style="enable-background:new 0 0 283.5 283.5;" xml:space="preserve">
<g id="jfBVLv.tif">
	<g>
		<path d="M1.8,150.2c0.5-4,1.1-8.1,1.6-12.1c2.3-17.6,5.6-35,13.4-51.1c6.9-14.1,17-24.5,32.2-29.3c18.7-6,42,0.6,54.3,18.1
			c9,12.8,14.5,27,17.6,42c2.1,10.2,3.3,20.5,4.8,30.8c0.5,3.8,0.5,7.7-2,11.3c3.7,1.6,4.6,4.8,5.5,8.2c2.4,8.4,6.8,15.7,13.1,21.7
			c6.7,6.4,16.2,6.3,22.7-0.3c6.5-6.6,11.1-14.3,13.4-23.3c0.4-1.6,1.1-3.4,2.3-4.4c2-1.6,2.2-3.5,2.3-5.6
			c1.2-14.4,2.9-28.7,6.5-42.7c2.7-10.7,6.3-21.1,13-29.9c16.7-22,44.2-19.3,58.1-1c7.7,10.2,11.9,22,15,34.2
			c3.5,13.7,5.3,27.6,6.1,41.7c0.3,5.4-2.1,9.4-6.3,10.2c-4.2,0.8-8.9-2.2-10-7.3c-1.2-5.2-1.5-10.6-2.1-15.9
			c-1.5-12.7-3.7-25.1-8.7-36.9c-0.3,0-0.5,0.1-0.8,0.1c5.9,33.8,11.8,67.5,17.8,101.6c-6.2,0-12,0-18.3,0c0,1.3,0,2.3,0,3.4
			c0,18.6,0,37.1,0,55.7c0,2-0.1,4.1-0.6,6.1c-1.2,4.4-4.3,6.6-8.3,6.4c-3.7-0.2-6.8-3-7.6-7.1c-0.4-1.7-0.5-3.5-0.5-5.3
			c0-18.5,0-36.9,0-55.4c0-1.1,0-2.1,0-3.4c-2.7,0-5.2,0-8.2,0c0,0.9,0,2,0,3c0,19,0,38,0,57c0,3.9-1.1,7.4-4,10.1
			c-3.5,3.4-8.3,3.2-11.2-0.6c-1.4-1.9-2.2-4.4-2.9-6.7c-0.5-1.6-0.3-3.4-0.3-5.1c0-18.1,0.1-36.2,0.1-54.3c0-1.1,0-2.1,0-3.5
			c-5.7,0-11.1,0-16.9,0c5.9-33.9,11.6-67.4,17.4-101c-0.3-0.1-0.7-0.1-1-0.2c-1.8,6.5-4,13-5.2,19.7c-1.8,10.2-2.9,20.6-4.3,30.9
			c-0.6,4.4-2.4,7.9-6.7,9.9c-0.6,0.3-1.2,1.2-1.4,2c-3.7,12.7-10.8,23.1-20.8,31.7c-0.9,0.8-1.7,2.3-1.7,3.5
			c-0.2,7-0.1,13.9,0,20.9c0,1.7,0.4,3.4,0.9,4.9c4.5,13,6.5,26.4,7.5,40c0.5,7.3-5.4,12.2-11.7,9.8c-4.2-1.6-5.5-5.2-5.9-9.4
			c-0.8-10.7-2.1-21.3-5.3-31.5c-0.3-0.9-0.6-1.8-1.6-2.8c-1.1,4-2.5,7.9-3.1,12c-1.3,8-2.2,16-3.3,24.1c-0.7,5.1-4.5,8.6-9.1,8.2
			c-4.9-0.4-8.4-4.3-8.1-9.5c0.7-13.8,2.9-27.4,7.4-40.6c0.5-1.5,0.9-3.1,0.9-4.7c0.1-7.2,0.3-14.5,0.1-21.7c0-1.3-1.1-2.8-2.1-3.7
			c-10.2-8.9-17.4-19.7-20.7-32.9c-0.4-1.8-0.4-3.6-0.5-5.5c-8.9-1.4-12.9-5.9-13.9-15c-1.4-12.5-2.9-24.9-6.9-36.9
			c-0.2-0.7-0.5-1.3-1.1-2c-0.1,0.6-0.2,1.2-0.2,1.9c-0.3,51-0.6,102-1,153.1c0,2.1-0.1,4.3-0.7,6.3c-1.6,6-7.1,9.7-13.4,9
			c-5.9-0.6-10.5-5.7-11-12.3c-0.1-1.2,0-2.3,0-3.5c0-28.8,0-57.6,0-86.4c0-1,0-2.1,0-3.3c-1.9,0-3.5,0-5.4,0c0,1.1,0,2.1,0,3.1
			c0,29.2,0,58.3,0,87.5c0,8.5-5.7,14.7-13.6,14.9c-7.2,0.2-12.6-4.8-13.1-12c-0.1-1.6-0.1-3.2-0.1-4.8c0-49.1,0-98.3,0-147.4
			c0-0.9,0-1.8-0.6-2.8c-1,4.1-2.4,8.1-3.1,12.2c-1.5,8.8-2.8,17.6-3.8,26.4c-1,8.9-9.1,15.1-17,12.9c-4.7-1.3-6.8-4.9-8.2-9.1
			C1.8,154.5,1.8,152.3,1.8,150.2z"/>
		<path d="M63.3,51.7c-13.8,0-25-11.2-25-25c0-13.8,11.4-25.2,25.2-25C77.5,1.8,88.5,13,88.5,27C88.4,40.7,77.2,51.8,63.3,51.7z"/>
		<path d="M209.5,42.5c0-12.6,10.3-22.9,23-22.9c12.7,0,23.1,10.5,23,23.2c-0.1,12.6-10.4,22.8-23.1,22.8
			C219.6,65.6,209.5,55.4,209.5,42.5z"/>
		<path d="M167.2,176.3c0,7.4-6.1,13.4-13.4,13.4c-7.4,0-13.5-6.2-13.5-13.7c0-7.4,6.1-13.4,13.4-13.4
			C161.2,162.7,167.2,168.8,167.2,176.3z"/>
	</g>
</g>
</svg>
