<?xml version="1.0" encoding="utf-8"?>
<!-- Generator: Adobe Illustrator 18.1.1, SVG Export Plug-In . SVG Version: 6.00 Build 0)  -->
<svg version="1.1" id="Calque_1" xmlns="http://www.w3.org/2000/svg" xmlns:xlink="http://www.w3.org/1999/xlink" x="0px" y="0px"
	 viewBox="0 0 283.5 283.5" style="enable-background:new 0 0 283.5 283.5;" xml:space="preserve">
<g id="Xm7lkc.tif">
	<g>
		<path d="M210,123.9c-0.1,0.4-0.2,0.9-0.3,1.3c-0.5,2.3-1.6,4.3-3.3,6c-10.6,11.2-21.2,22.4-31.8,33.5c-8.1,8.5-16.2,17-24.3,25.6
			c-1.9,2-4.1,3.3-6.9,3.7c-3.2,0.4-6.1-0.5-8.5-2.6c-1.1-0.9-2.1-2.1-3.1-3.1c-18.1-19-36.1-38.1-54.2-57.1c-1.9-2-2.9-4.3-3.5-6.9
			c0-1.2,0-2.5,0-3.7c0.1-0.2,0.2-0.5,0.2-0.7c1.2-4.7,4-7.9,8.8-9.1c0.6-0.1,1.1-0.2,1.7-0.3c0.4,0,0.7,0,1.1,0
			c0.1,0,0.2,0.1,0.3,0.1c3.3,0.3,5.8,2,8,4.3c15.6,16.5,31.3,33,47,49.5c0.3,0.3,0.5,0.7,0.7,1.1c1.5-1.5,2.7-2.8,3.9-4.1
			c14.9-15.7,29.9-31.4,44.8-47.2c1.6-1.7,3.6-2.9,5.9-3.4c0.6-0.1,1.1-0.2,1.7-0.3c0.4,0,0.7,0,1.1,0c0.2,0.1,0.3,0.2,0.5,0.2
			c5,0.7,8.1,3.6,9.7,8.3c0.3,0.7,0.4,1.5,0.6,2.3C210,122.1,210,123,210,123.9z"/>
	</g>
</g>
</svg>
