<svg xmlns="http://www.w3.org/2000/svg" width="42" height="37" viewBox="0 0 42 37"><title>ico-creche-age</title><path d="M24.79,27.16a5.56,5.56,0,0,1-4.23,1.57,4.39,4.39,0,0,1-3.26-1.51.78.78,0,0,0-1.12-.12.83.83,0,0,0-.11,1.15,6,6,0,0,0,4.42,2.11h.37a7.09,7.09,0,0,0,5.06-2.06.83.83,0,0,0,0-1.15A.78.78,0,0,0,24.79,27.16Z" fill="#ea5f48"/><path d="M40.72,14.28a4.35,4.35,0,0,0-4.16-1.94,19,19,0,0,0-5.22-8.21,15,15,0,0,0-20.67,0,19,19,0,0,0-5.2,8.21,4.36,4.36,0,0,0-4.19,1.94A7.11,7.11,0,0,0,0,18.44,7.11,7.11,0,0,0,1.28,22.6a4.39,4.39,0,0,0,3.9,2,20,20,0,0,0,2.3,5.31A15.6,15.6,0,0,0,20.28,37H21a15.44,15.44,0,0,0,12.6-6.1,21.55,21.55,0,0,0,3.28-6.33,4.41,4.41,0,0,0,3.88-2A7.11,7.11,0,0,0,42,18.44,7.11,7.11,0,0,0,40.72,14.28Zm-1.28,7.35a2.74,2.74,0,0,1-3,1.23.77.77,0,0,0-.62.08.81.81,0,0,0-.37.51,18.88,18.88,0,0,1-3.2,6.47,14,14,0,0,1-12,5.43A14,14,0,0,1,8.82,29a18.47,18.47,0,0,1-2.29-5.56.81.81,0,0,0-.37-.51.78.78,0,0,0-.62-.08,2.72,2.72,0,0,1-3-1.23,5.45,5.45,0,0,1-1-3.19,5.45,5.45,0,0,1,1-3.19,2.72,2.72,0,0,1,3.18-1.17.78.78,0,0,0,.63,0,.81.81,0,0,0,.4-.5,17.49,17.49,0,0,1,5-8.2A14,14,0,0,1,18,2a16.59,16.59,0,0,1-1.53,3.72c-.91,1.6-1.72,2.13-2.13,2.1a.81.81,0,0,0-.12,1.62h.16c1.18,0,2.38-1,3.46-2.91A16.72,16.72,0,0,0,19.69,1.7c.44,0,.88-.07,1.33-.07h0a17.84,17.84,0,0,1-.3,4.15c-.37,1.89-1,2.72-1.4,2.86a.82.82,0,0,0-.51,1,.8.8,0,0,0,.76.57.78.78,0,0,0,.24,0C21.29,9.7,22,7.69,22.29,6.1a19.57,19.57,0,0,0,.33-4.36A13.08,13.08,0,0,1,24,2a.81.81,0,0,0,0,.41,18.38,18.38,0,0,1,.57,2.76c.23,1.94-.09,3-.46,3.28A.83.83,0,0,0,24,9.59a.78.78,0,0,0,1.12.12c1.21-1,1.23-3.14,1-4.74a19.79,19.79,0,0,0-.49-2.47,14.41,14.41,0,0,1,4.6,2.85,17.5,17.5,0,0,1,5,8.2.81.81,0,0,0,.4.5.78.78,0,0,0,.63,0,2.7,2.7,0,0,1,3.16,1.17,5.45,5.45,0,0,1,1,3.19A5.45,5.45,0,0,1,39.45,21.63Z" fill="#ea5f48"/><ellipse cx="15.81" cy="20.84" rx="1.52" ry="1.64" fill="#ea5f48"/><ellipse cx="26.19" cy="20.84" rx="1.52" ry="1.64" fill="#ea5f48"/><path d="M5.61,17.24a.81.81,0,0,0,0-1.63,2.72,2.72,0,0,0-2.69,2.58A3.21,3.21,0,0,0,5.31,21.7l.18,0a.8.8,0,0,0,.77-.64.81.81,0,0,0-.6-1,1.6,1.6,0,0,1-1.19-1.76A1.13,1.13,0,0,1,5.61,17.24Z" fill="#ea5f48"/><path d="M36.43,15.61a.82.82,0,0,0-.81.79.81.81,0,0,0,.77.83,1.13,1.13,0,0,1,1.15,1.11,1.6,1.6,0,0,1-1.19,1.76.81.81,0,0,0-.6,1,.8.8,0,0,0,.77.64l.18,0a3.21,3.21,0,0,0,2.43-3.51A2.72,2.72,0,0,0,36.43,15.61Z" fill="#ea5f48"/></svg>