<svg xmlns="http://www.w3.org/2000/svg" width="34" height="36" viewBox="0 0 34 36"><title>ico-creche-fermetures</title><path d="M13.73,23.74A3,3,0,0,0,16.38,21c0-2-1.79-3.22-4.26-3.22a5.59,5.59,0,0,0-3.89,1.44.74.74,0,0,0-.24.54.79.79,0,0,0,.79.76.71.71,0,0,0,.46-.16,4.15,4.15,0,0,1,2.72-1c1.43,0,2.61.65,2.61,1.89,0,1.51-1.55,1.8-3.33,1.78a.76.76,0,0,0-.79.77c0,.79.77.85,1.43.81,1.77,0,2.89.58,2.89,1.93s-1,2.05-2.7,2.05a4.57,4.57,0,0,1-2.94-1.08.76.76,0,0,0-.49-.18.83.83,0,0,0-.8.81.62.62,0,0,0,.18.45,5.55,5.55,0,0,0,4.11,1.59c2.74,0,4.44-1.46,4.44-3.48A3.06,3.06,0,0,0,13.73,23.74Z" fill="#ea5f48"/><path d="M23.47,17.83a1,1,0,0,0-.73.29l-2.65,2.65a.79.79,0,0,0-.22.54.78.78,0,0,0,.77.76.7.7,0,0,0,.51-.22l1.55-1.59v8.9a.91.91,0,0,0,1.81,0V18.82A1,1,0,0,0,23.47,17.83Z" fill="#ea5f48"/><path d="M33.19,4.12H25.67V.8a.81.81,0,0,0-1.62,0V4.12H9.95V.8A.81.81,0,0,0,8.33.8V4.12H.81a.81.81,0,0,0-.81.8V35.2a.81.81,0,0,0,.81.8H33.19a.81.81,0,0,0,.81-.8V4.92A.81.81,0,0,0,33.19,4.12ZM8.33,5.72V7.34a.81.81,0,0,0,1.62,0V5.72H24.05V7.34a.81.81,0,0,0,1.62,0V5.72h6.7v6.14a.79.79,0,0,0-.42-.13H2a.79.79,0,0,0-.42.13V5.72ZM1.62,34.4V13.19a.79.79,0,0,0,.42.13H32a.79.79,0,0,0,.42-.13V34.4Z" fill="#ea5f48"/></svg>